<svg width="21" height="22" viewBox="0 0 21 22" fill="none" xmlns="http://www.w3.org/2000/svg">
<path fill-rule="evenodd" clip-rule="evenodd" d="M6.45435 0.643553C7.54534 0.593155 7.8932 0.581955 10.6723 0.581955C13.4514 0.581955 13.7993 0.594088 14.8893 0.643553C15.9794 0.693019 16.7235 0.867547 17.3745 1.12047C18.0563 1.379 18.6748 1.78312 19.1864 2.30578C19.7072 2.81816 20.109 3.43788 20.3657 4.12293C20.6187 4.77624 20.7917 5.52289 20.8419 6.61486C20.8921 7.7115 20.9033 8.06056 20.9033 10.8483C20.9033 13.6371 20.8912 13.9861 20.8419 15.0809C20.7926 16.1729 20.6187 16.9195 20.3657 17.5728C20.109 18.258 19.7065 18.8787 19.1864 19.3919C18.6748 19.9145 18.0563 20.3177 17.3745 20.5753C16.7235 20.8292 15.9794 21.0027 14.8912 21.0531C13.7993 21.1035 13.4514 21.1147 10.6723 21.1147C7.8932 21.1147 7.54534 21.1026 6.45435 21.0531C5.36614 21.0037 4.62207 20.8292 3.97101 20.5753C3.28825 20.3177 2.66964 19.9138 2.15826 19.3919C1.63776 18.8792 1.23497 18.2587 0.977977 17.5738C0.725922 16.9205 0.552926 16.1738 0.502701 15.0818C0.452476 13.9852 0.441315 13.6361 0.441315 10.8483C0.441315 8.05962 0.453406 7.71057 0.502701 6.61673C0.551995 5.52289 0.725922 4.77624 0.977977 4.12293C1.23535 3.43796 1.63845 2.81752 2.15919 2.30484C2.66985 1.78266 3.28783 1.37848 3.97008 1.12047C4.62114 0.867547 5.36521 0.693952 6.45342 0.643553H6.45435ZM14.8066 2.4915C13.7277 2.44204 13.404 2.43177 10.6723 2.43177C7.94063 2.43177 7.61696 2.44204 6.53806 2.4915C5.54007 2.53724 4.99876 2.7043 4.63788 2.84523C4.16075 3.03189 3.8194 3.25308 3.46132 3.61241C3.12188 3.94378 2.86065 4.34719 2.69678 4.79304C2.55634 5.15517 2.38985 5.69835 2.34428 6.69979C2.29498 7.78243 2.28475 8.10722 2.28475 10.8483C2.28475 13.5895 2.29498 13.9143 2.34428 14.9969C2.38985 15.9983 2.55634 16.5415 2.69678 16.9037C2.86048 17.3488 3.12183 17.753 3.46132 18.0843C3.7915 18.4249 4.19423 18.6872 4.63788 18.8515C4.99876 18.9924 5.54007 19.1595 6.53806 19.2052C7.61696 19.2547 7.9397 19.2649 10.6723 19.2649C13.4049 19.2649 13.7277 19.2547 14.8066 19.2052C15.8045 19.1595 16.3459 18.9924 16.7067 18.8515C17.1839 18.6648 17.5252 18.4436 17.8833 18.0843C18.2228 17.753 18.4841 17.3488 18.6478 16.9037C18.7883 16.5415 18.9548 15.9983 19.0003 14.9969C19.0496 13.9143 19.0599 13.5895 19.0599 10.8483C19.0599 8.10722 19.0496 7.78243 19.0003 6.69979C18.9548 5.69835 18.7883 5.15517 18.6478 4.79304C18.4618 4.31426 18.2414 3.97173 17.8833 3.61241C17.553 3.27182 17.151 3.00969 16.7067 2.84523C16.3459 2.7043 15.8045 2.53724 14.8066 2.4915ZM9.36553 14.0132C10.0953 14.318 10.908 14.3592 11.6646 14.1296C12.4213 13.9 13.0751 13.4139 13.5143 12.7544C13.9535 12.0948 14.1509 11.3027 14.0728 10.5134C13.9946 9.72403 13.6458 8.98637 13.0859 8.42641C12.729 8.06847 12.2974 7.79439 11.8222 7.62391C11.347 7.45342 10.8401 7.39078 10.3379 7.44048C9.83575 7.49018 9.35079 7.651 8.91797 7.91135C8.48516 8.1717 8.11525 8.5251 7.83488 8.94613C7.55452 9.36715 7.37066 9.84531 7.29656 10.3462C7.22246 10.8471 7.25995 11.3582 7.40633 11.8428C7.55272 12.3274 7.80436 12.7734 8.14313 13.1487C8.48191 13.524 8.89939 13.8192 9.36553 14.0132ZM6.95381 7.11698C7.44213 6.62697 8.02185 6.23827 8.65987 5.97308C9.29789 5.70789 9.98172 5.5714 10.6723 5.5714C11.3629 5.5714 12.0467 5.70789 12.6847 5.97308C13.3228 6.23827 13.9025 6.62697 14.3908 7.11698C14.8791 7.60699 15.2665 8.18872 15.5308 8.82895C15.795 9.46918 15.9311 10.1554 15.9311 10.8483C15.9311 11.5413 15.795 12.2275 15.5308 12.8678C15.2665 13.508 14.8791 14.0897 14.3908 14.5797C13.4046 15.5693 12.067 16.1253 10.6723 16.1253C9.2776 16.1253 7.94001 15.5693 6.95381 14.5797C5.9676 13.5901 5.41355 12.2479 5.41355 10.8483C5.41355 9.44881 5.9676 8.1066 6.95381 7.11698ZM17.0974 6.35727C17.2184 6.24272 17.3153 6.10498 17.3823 5.95219C17.4493 5.7994 17.485 5.63467 17.4875 5.46776C17.4899 5.30085 17.4589 5.13515 17.3964 4.98046C17.3338 4.82578 17.241 4.68526 17.1234 4.56722C17.0057 4.44918 16.8657 4.35603 16.7116 4.29327C16.5574 4.23052 16.3923 4.19944 16.2259 4.20187C16.0596 4.2043 15.8954 4.2402 15.7432 4.30744C15.5909 4.37468 15.4536 4.47189 15.3395 4.59332C15.1175 4.82947 14.996 5.14315 15.0007 5.46776C15.0054 5.79237 15.136 6.10236 15.3648 6.33192C15.5935 6.56148 15.9024 6.69254 16.2259 6.69727C16.5494 6.702 16.862 6.58004 17.0974 6.35727Z" fill="#1865F2"/>
</svg>
