<svg width="21" height="15" viewBox="0 0 21 15" fill="none" xmlns="http://www.w3.org/2000/svg">
<mask id="path-1-inside-1_11_145" fill="white">
<path d="M17.476 1.82401C16.1492 1.28961 14.7491 0.908199 13.3107 0.689287C13.2977 0.687361 13.2843 0.689024 13.2724 0.694049C13.2605 0.699073 13.2507 0.707212 13.2442 0.717346C13.0639 0.99794 12.8644 1.36496 12.725 1.65229C11.1745 1.44578 9.59743 1.44578 8.04695 1.65229C7.89146 1.33221 7.71555 1.02007 7.52006 0.717346C7.5135 0.707323 7.50364 0.699278 7.49177 0.69427C7.4799 0.689261 7.46658 0.687524 7.45356 0.689287C6.01484 0.907028 4.61449 1.28864 3.28831 1.82401C3.27697 1.82781 3.26747 1.83495 3.26146 1.84421C0.609101 5.32246 -0.118571 8.71541 0.238231 12.0657C0.23951 12.0814 0.25102 12.0971 0.265087 12.1072C1.8096 13.1113 3.53717 13.878 5.37414 14.3744C5.3871 14.378 5.40104 14.3779 5.41392 14.3741C5.4268 14.3702 5.43795 14.3629 5.44575 14.3531C5.83964 13.8817 6.19005 13.3845 6.49186 12.8615C6.49815 12.8507 6.5003 12.8384 6.498 12.8265C6.49569 12.8146 6.48905 12.8036 6.47907 12.7952C6.47246 12.7898 6.46462 12.7856 6.45605 12.7829C5.90507 12.5971 5.37144 12.3738 4.86003 12.1151C4.84575 12.108 4.83513 12.0963 4.83036 12.0825C4.8256 12.0687 4.82707 12.0539 4.83446 12.041C4.83881 12.0327 4.84539 12.0253 4.85364 12.0197C4.96106 11.949 5.06849 11.8749 5.1708 11.8008C5.17983 11.7944 5.19068 11.7903 5.20217 11.789C5.21366 11.7876 5.22536 11.789 5.23602 11.793C8.58535 13.1353 12.2109 13.1353 15.5193 11.793C15.5304 11.7888 15.5425 11.7873 15.5545 11.7887C15.5664 11.79 15.5777 11.7942 15.5871 11.8008C15.6894 11.8749 15.7968 11.949 15.9043 12.0197C15.913 12.0253 15.92 12.0327 15.9246 12.0412C15.9293 12.0497 15.9314 12.0591 15.9309 12.0686C15.9304 12.078 15.9273 12.0872 15.9217 12.0954C15.9162 12.1035 15.9084 12.1102 15.8992 12.1151C15.3889 12.3761 14.8546 12.5992 14.3019 12.7818C14.293 12.7846 14.285 12.789 14.2784 12.7949C14.2718 12.8007 14.2667 12.8077 14.2635 12.8154C14.2605 12.8229 14.2594 12.8309 14.26 12.8388C14.2607 12.8467 14.2632 12.8544 14.2673 12.8615C14.5743 13.3834 14.9259 13.8817 15.3122 14.3531C15.32 14.3629 15.3311 14.3702 15.344 14.3741C15.3569 14.3779 15.3708 14.378 15.3838 14.3744C17.2238 13.8795 18.9542 13.1128 20.5005 12.1072C20.5082 12.1025 20.5147 12.0963 20.5193 12.0892C20.524 12.082 20.5267 12.0739 20.5274 12.0657C20.9545 8.19238 19.8125 4.82749 17.5016 1.84534C17.4992 1.84041 17.4958 1.83597 17.4914 1.83229C17.487 1.82862 17.4817 1.8258 17.476 1.82401ZM6.99189 10.0252C5.98287 10.0252 5.15289 9.21262 5.15289 8.21595C5.15289 7.21815 5.96753 6.40555 6.99189 6.40555C8.02393 6.40555 8.84624 7.22489 8.83089 8.21595C8.83089 9.21262 8.01626 10.0252 6.99189 10.0252ZM13.7903 10.0252C12.7826 10.0252 11.9513 9.21262 11.9513 8.21595C11.9513 7.21815 12.766 6.40555 13.7903 6.40555C14.8224 6.40555 15.6459 7.22489 15.6293 8.21595C15.6293 9.21262 14.8224 10.0252 13.7903 10.0252Z"/>
</mask>
<path d="M17.476 1.82401C16.1492 1.28961 14.7491 0.908199 13.3107 0.689287C13.2977 0.687361 13.2843 0.689024 13.2724 0.694049C13.2605 0.699073 13.2507 0.707212 13.2442 0.717346C13.0639 0.99794 12.8644 1.36496 12.725 1.65229C11.1745 1.44578 9.59743 1.44578 8.04695 1.65229C7.89146 1.33221 7.71555 1.02007 7.52006 0.717346C7.5135 0.707323 7.50364 0.699278 7.49177 0.69427C7.4799 0.689261 7.46658 0.687524 7.45356 0.689287C6.01484 0.907028 4.61449 1.28864 3.28831 1.82401C3.27697 1.82781 3.26747 1.83495 3.26146 1.84421C0.609101 5.32246 -0.118571 8.71541 0.238231 12.0657C0.23951 12.0814 0.25102 12.0971 0.265087 12.1072C1.8096 13.1113 3.53717 13.878 5.37414 14.3744C5.3871 14.378 5.40104 14.3779 5.41392 14.3741C5.4268 14.3702 5.43795 14.3629 5.44575 14.3531C5.83964 13.8817 6.19005 13.3845 6.49186 12.8615C6.49815 12.8507 6.5003 12.8384 6.498 12.8265C6.49569 12.8146 6.48905 12.8036 6.47907 12.7952C6.47246 12.7898 6.46462 12.7856 6.45605 12.7829C5.90507 12.5971 5.37144 12.3738 4.86003 12.1151C4.84575 12.108 4.83513 12.0963 4.83036 12.0825C4.8256 12.0687 4.82707 12.0539 4.83446 12.041C4.83881 12.0327 4.84539 12.0253 4.85364 12.0197C4.96106 11.949 5.06849 11.8749 5.1708 11.8008C5.17983 11.7944 5.19068 11.7903 5.20217 11.789C5.21366 11.7876 5.22536 11.789 5.23602 11.793C8.58535 13.1353 12.2109 13.1353 15.5193 11.793C15.5304 11.7888 15.5425 11.7873 15.5545 11.7887C15.5664 11.79 15.5777 11.7942 15.5871 11.8008C15.6894 11.8749 15.7968 11.949 15.9043 12.0197C15.913 12.0253 15.92 12.0327 15.9246 12.0412C15.9293 12.0497 15.9314 12.0591 15.9309 12.0686C15.9304 12.078 15.9273 12.0872 15.9217 12.0954C15.9162 12.1035 15.9084 12.1102 15.8992 12.1151C15.3889 12.3761 14.8546 12.5992 14.3019 12.7818C14.293 12.7846 14.285 12.789 14.2784 12.7949C14.2718 12.8007 14.2667 12.8077 14.2635 12.8154C14.2605 12.8229 14.2594 12.8309 14.26 12.8388C14.2607 12.8467 14.2632 12.8544 14.2673 12.8615C14.5743 13.3834 14.9259 13.8817 15.3122 14.3531C15.32 14.3629 15.3311 14.3702 15.344 14.3741C15.3569 14.3779 15.3708 14.378 15.3838 14.3744C17.2238 13.8795 18.9542 13.1128 20.5005 12.1072C20.5082 12.1025 20.5147 12.0963 20.5193 12.0892C20.524 12.082 20.5267 12.0739 20.5274 12.0657C20.9545 8.19238 19.8125 4.82749 17.5016 1.84534C17.4992 1.84041 17.4958 1.83597 17.4914 1.83229C17.487 1.82862 17.4817 1.8258 17.476 1.82401ZM6.99189 10.0252C5.98287 10.0252 5.15289 9.21262 5.15289 8.21595C5.15289 7.21815 5.96753 6.40555 6.99189 6.40555C8.02393 6.40555 8.84624 7.22489 8.83089 8.21595C8.83089 9.21262 8.01626 10.0252 6.99189 10.0252ZM13.7903 10.0252C12.7826 10.0252 11.9513 9.21262 11.9513 8.21595C11.9513 7.21815 12.766 6.40555 13.7903 6.40555C14.8224 6.40555 15.6459 7.22489 15.6293 8.21595C15.6293 9.21262 14.8224 10.0252 13.7903 10.0252Z" fill="#1865F2"/>
<path d="M17.476 1.82401L16.9646 3.09374L17.0154 3.11422L17.0677 3.13056L17.476 1.82401ZM13.3107 0.689287L13.5167 -0.663995L13.5109 -0.664849L13.3107 0.689287ZM13.2442 0.717346L14.3958 1.4574L14.4004 1.45014L13.2442 0.717346ZM12.725 1.65229L12.5443 3.00916L13.5248 3.13975L13.9566 2.24978L12.725 1.65229ZM8.04695 1.65229L6.8157 2.25043L7.2477 3.13968L8.22767 3.00916L8.04695 1.65229ZM7.52006 0.717346L8.67001 -0.025254L8.66539 -0.0323088L7.52006 0.717346ZM7.45356 0.689287L7.26987 -0.667185L7.25929 -0.665752L7.24873 -0.664153L7.45356 0.689287ZM3.28831 1.82401L3.72306 3.12199L3.76233 3.10884L3.80074 3.09333L3.28831 1.82401ZM3.26146 1.84421L4.34994 2.67424L4.38126 2.63317L4.4094 2.58986L3.26146 1.84421ZM0.238231 12.0657L1.60257 11.9547L1.60119 11.9377L1.59939 11.9207L0.238231 12.0657ZM0.265087 12.1072L-0.533324 13.2191L-0.50758 13.2376L-0.481007 13.2549L0.265087 12.1072ZM5.37414 14.3744L5.73945 13.0552L5.73128 13.053L5.37414 14.3744ZM5.44575 14.3531L4.39533 13.4754L4.38544 13.4872L4.37581 13.4993L5.44575 14.3531ZM6.49186 12.8615L5.3098 12.1712L5.30624 12.1773L6.49186 12.8615ZM6.47907 12.7952L7.35733 11.7453L7.35265 11.7414L6.47907 12.7952ZM6.45605 12.7829L6.01856 14.08L6.03418 14.0852L6.04992 14.0901L6.45605 12.7829ZM4.86003 12.1151L5.47791 10.8936L5.46961 10.8895L4.86003 12.1151ZM4.83446 12.041L6.02156 12.7226L6.03557 12.6982L6.04856 12.6732L4.83446 12.041ZM4.85364 12.0197L4.10103 10.8763L4.0904 10.8833L4.0799 10.8905L4.85364 12.0197ZM5.1708 11.8008L4.38162 10.6824L4.37479 10.6872L4.36801 10.6921L5.1708 11.8008ZM5.23602 11.793L5.74526 10.5224L5.73133 10.5168L5.71729 10.5115L5.23602 11.793ZM15.5193 11.793L15.0331 10.5134L15.0188 10.5188L15.0047 10.5245L15.5193 11.793ZM15.5871 11.8008L16.3899 10.6921L16.3799 10.6849L16.3699 10.6778L15.5871 11.8008ZM15.9043 12.0197L15.1517 13.1631L15.1585 13.1676L15.1653 13.172L15.9043 12.0197ZM15.8992 12.1151L16.5227 13.3337L16.5331 13.3283L15.8992 12.1151ZM14.3019 12.7818L14.7162 14.0864L14.7238 14.084L14.7313 14.0815L14.3019 12.7818ZM14.2635 12.8154L12.998 12.2936L12.994 12.3033L12.9902 12.3131L14.2635 12.8154ZM14.2673 12.8615L15.4473 12.1676L15.4451 12.1638L14.2673 12.8615ZM15.3122 14.3531L16.3821 13.4993L16.3766 13.4924L16.371 13.4856L15.3122 14.3531ZM15.3838 14.3744L15.0282 13.0525L15.0185 13.0552L15.3838 14.3744ZM20.5005 12.1072L19.7898 10.9374L19.7718 10.9482L19.7543 10.9597L20.5005 12.1072ZM20.5274 12.0657L19.1667 11.9157L19.1642 11.9383L19.1625 11.9611L20.5274 12.0657ZM17.5016 1.84534L16.2641 2.43041L16.328 2.5656L16.4196 2.68379L17.5016 1.84534ZM8.83089 8.21595L7.46221 8.19475L7.46204 8.20535V8.21595H8.83089ZM15.6293 8.21595L14.2607 8.19299L14.2605 8.20447V8.21595H15.6293ZM17.9874 0.55428C16.5607 -0.0203682 15.058 -0.42941 13.5167 -0.663983L13.1048 2.04256C14.4403 2.24581 15.7377 2.59959 16.9646 3.09374L17.9874 0.55428ZM13.5109 -0.664849C13.2549 -0.702704 12.9878 -0.671559 12.7403 -0.567133L13.8046 1.95523C13.5809 2.04961 13.3406 2.07743 13.1106 2.04342L13.5109 -0.664849ZM12.7403 -0.567133C12.4922 -0.462479 12.2555 -0.279613 12.0881 -0.0154518L14.4004 1.45014C14.2458 1.69404 14.0288 1.86063 13.8046 1.95523L12.7403 -0.567133ZM12.0927 -0.0226892C11.8763 0.31397 11.6507 0.730656 11.4935 1.0548L13.9566 2.24978C14.0781 1.99926 14.2515 1.68191 14.3958 1.45738L12.0927 -0.0226892ZM12.9057 0.295416C11.2353 0.0729319 9.53666 0.0729319 7.86623 0.295416L8.22767 3.00916C9.6582 2.81862 11.1138 2.81862 12.5443 3.00916L12.9057 0.295416ZM9.27821 1.05414C9.09824 0.683693 8.8951 0.323353 8.66999 -0.0252399L6.37014 1.45993C6.536 1.71678 6.68468 1.98072 6.8157 2.25043L9.27821 1.05414ZM8.66539 -0.0323088C8.49844 -0.287382 8.26662 -0.464505 8.02391 -0.566912L6.95962 1.95545C6.74066 1.86306 6.52857 1.70203 6.37474 1.467L8.66539 -0.0323088ZM8.02391 -0.566912C7.78167 -0.669126 7.52074 -0.701156 7.26987 -0.667185L7.63725 2.04576C7.41242 2.0762 7.17813 2.04765 6.95962 1.95545L8.02391 -0.566912ZM7.24873 -0.664153C5.7063 -0.430716 4.20259 -0.0212678 2.77589 0.554687L3.80074 3.09333C5.02639 2.59854 6.32339 2.24477 7.6584 2.04273L7.24873 -0.664153ZM2.85357 0.52603C2.57512 0.619292 2.3025 0.807629 2.11352 1.09857L4.4094 2.58986C4.23245 2.86227 3.97881 3.03633 3.72306 3.12199L2.85357 0.52603ZM2.17297 1.01418C-0.696106 4.77663 -1.51597 8.52003 -1.12292 12.2107L1.59939 11.9207C1.27883 8.91078 1.91431 5.86829 4.34994 2.67424L2.17297 1.01418ZM-1.12611 12.1767C-1.08089 12.7324 -0.739877 13.0708 -0.533324 13.2191L1.0635 10.9953C1.17989 11.0789 1.29139 11.1884 1.38394 11.3265C1.47394 11.4607 1.57971 11.6737 1.60257 11.9547L-1.12611 12.1767ZM-0.481007 13.2549C1.18721 14.3394 3.04669 15.1634 5.01699 15.6959L5.73128 13.053C4.02765 12.5926 2.43199 11.8833 1.01118 10.9596L-0.481007 13.2549ZM5.00882 15.6936C5.26908 15.7657 5.545 15.7633 5.80457 15.686L5.02327 13.0621C5.25709 12.9925 5.50513 12.9903 5.73945 13.0552L5.00882 15.6936ZM5.80457 15.686C6.06441 15.6086 6.3204 15.4516 6.51569 15.2069L4.37581 13.4993C4.5555 13.2741 4.78919 13.1318 5.02327 13.0621L5.80457 15.686ZM6.49617 15.2308C6.93768 14.7024 7.33403 14.1408 7.67748 13.5456L5.30624 12.1773C5.04606 12.6282 4.7416 13.061 4.39533 13.4754L6.49617 15.2308ZM7.67391 13.5518C7.8427 13.2627 7.90903 12.9139 7.84202 12.5669L5.15398 13.0861C5.09158 12.7629 5.1536 12.4386 5.30981 12.1712L7.67391 13.5518ZM7.84202 12.5669C7.77561 12.2231 7.59048 11.9403 7.35733 11.7453L5.60082 13.8452C5.38763 13.6669 5.21578 13.4061 5.15398 13.0861L7.84202 12.5669ZM7.35265 11.7414C7.20209 11.6166 7.03377 11.529 6.86218 11.4757L6.04992 14.0901C5.89547 14.0421 5.74284 13.963 5.60549 13.8491L7.35265 11.7414ZM6.89354 11.4858C6.4035 11.3206 5.93022 11.1224 5.4779 10.8936L4.24217 13.3366C4.81267 13.6251 5.40663 13.8736 6.01856 14.08L6.89354 11.4858ZM5.46961 10.8895C5.74378 11.0258 6.00038 11.277 6.12426 11.6358L3.53647 12.5293C3.66987 12.9157 3.94772 13.1901 4.25046 13.3407L5.46961 10.8895ZM6.12426 11.6358C6.2511 12.0031 6.20725 12.3992 6.02156 12.7226L3.64735 11.3594C3.44688 11.7086 3.40011 12.1344 3.53647 12.5293L6.12426 11.6358ZM6.04856 12.6732C5.94271 12.8765 5.79266 13.0356 5.62738 13.1489L4.0799 10.8905C3.89811 11.0151 3.7349 11.1888 3.62035 11.4088L6.04856 12.6732ZM5.60625 13.1631C5.72995 13.0817 5.85413 12.996 5.97358 12.9096L4.36801 10.6921C4.28284 10.7538 4.19218 10.8163 4.10103 10.8763L5.60625 13.1631ZM5.95997 12.9193C5.77503 13.0498 5.56884 13.1235 5.36588 13.148L5.03846 10.4299C4.81251 10.4571 4.58464 10.5391 4.38162 10.6824L5.95997 12.9193ZM5.36588 13.148C5.16285 13.1724 4.95309 13.1489 4.75474 13.0744L5.71729 10.5115C5.49762 10.429 5.26447 10.4027 5.03846 10.4299L5.36588 13.148ZM4.72678 13.0636C8.40094 14.5361 12.3935 14.5385 16.034 13.0614L15.0047 10.5245C12.0283 11.7322 8.76977 11.7345 5.74526 10.5224L4.72678 13.0636ZM16.0055 13.0726C15.808 13.1476 15.5991 13.1718 15.3968 13.1484L15.7121 10.4289C15.486 10.4027 15.2528 10.4299 15.0331 10.5134L16.0055 13.0726ZM15.3968 13.1484C15.1947 13.125 14.9891 13.0526 14.8044 12.9238L16.3699 10.6778C16.1662 10.5359 15.9381 10.4551 15.7121 10.4289L15.3968 13.1484ZM14.7843 12.9096C14.9038 12.996 15.028 13.0817 15.1517 13.1631L16.6569 10.8763C16.5657 10.8163 16.4751 10.7537 16.3899 10.6921L14.7843 12.9096ZM15.1653 13.172C14.9931 13.0615 14.8353 12.9027 14.7228 12.6965L17.1264 11.3859C17.0047 11.1626 16.8328 10.989 16.6432 10.8674L15.1653 13.172ZM14.7228 12.6965C14.6095 12.4886 14.5506 12.2465 14.5641 11.9953L17.2978 12.1419C17.3123 11.8717 17.2491 11.6108 17.1264 11.3859L14.7228 12.6965ZM14.5641 11.9953C14.5775 11.7445 14.6614 11.5134 14.7917 11.3228L17.0517 12.8679C17.1931 12.6611 17.2834 12.4116 17.2978 12.1419L14.5641 11.9953ZM14.7917 11.3228C14.9209 11.1339 15.0885 10.9942 15.2652 10.9019L16.5331 13.3283C16.7284 13.2263 16.9115 13.0731 17.0517 12.8679L14.7917 11.3228ZM15.2757 10.8965C14.8289 11.125 14.3596 11.3211 13.8724 11.482L14.7313 14.0815C15.3497 13.8772 15.9489 13.6272 16.5226 13.3337L15.2757 10.8965ZM13.8875 11.4772C13.7074 11.5343 13.531 11.6295 13.3755 11.766L15.1813 13.8237C15.039 13.9486 14.8786 14.0348 14.7162 14.0864L13.8875 11.4772ZM13.3755 11.766C13.2194 11.903 13.0858 12.0807 12.998 12.2936L15.529 13.3373C15.4476 13.5347 15.3241 13.6984 15.1813 13.8237L13.3755 11.766ZM12.9902 12.3131C12.9112 12.5132 12.8775 12.7318 12.8959 12.9525L15.6241 12.7251C15.6412 12.93 15.6099 13.1326 15.5368 13.3178L12.9902 12.3131ZM12.8959 12.9525C12.9143 13.1731 12.9833 13.3796 13.0896 13.5591L15.4451 12.1638C15.543 12.3292 15.6071 12.5203 15.6241 12.7251L12.8959 12.9525ZM13.0874 13.5554C13.4328 14.1427 13.8258 14.6988 14.2533 15.2206L16.371 13.4856C16.0261 13.0646 15.7157 12.6241 15.4473 12.1676L13.0874 13.5554ZM14.2422 15.2069C14.4375 15.4516 14.6935 15.6086 14.9533 15.686L15.7346 13.0621C15.9687 13.1318 16.2024 13.2741 16.3821 13.4993L14.2422 15.2069ZM14.9533 15.686C15.2129 15.7633 15.4888 15.7657 15.7491 15.6936L15.0185 13.0552C15.2528 12.9903 15.5008 12.9925 15.7346 13.0621L14.9533 15.686ZM15.7393 15.6963C17.7133 15.1653 19.5762 14.3411 21.2467 13.2548L19.7543 10.9597C18.3322 11.8844 16.7343 12.5937 15.0282 13.0526L15.7393 15.6963ZM21.2112 13.2771C21.3849 13.1716 21.5454 13.0233 21.6688 12.8325L19.3699 11.3458C19.484 11.1694 19.6316 11.0335 19.7898 10.9374L21.2112 13.2771ZM21.6688 12.8325C21.7929 12.6406 21.8735 12.4141 21.8922 12.1703L19.1625 11.9611C19.1799 11.7337 19.2551 11.5234 19.3699 11.3458L21.6688 12.8325ZM21.888 12.2157C22.3589 7.94559 21.0836 4.23314 18.5836 1.00688L16.4196 2.68379C18.5413 5.42184 19.5501 8.43917 19.1667 11.9157L21.888 12.2157ZM18.7391 1.26026C18.6473 1.06622 18.517 0.905205 18.3679 0.780931L16.6148 2.88366C16.4745 2.76673 16.3511 2.6146 16.2641 2.43041L18.7391 1.26026ZM18.3679 0.780931C18.2194 0.657071 18.0533 0.570284 17.8843 0.517456L17.0677 3.13056C16.9101 3.08131 16.7545 3.00017 16.6148 2.88366L18.3679 0.780931ZM6.99189 8.65637C6.71579 8.65637 6.52174 8.43374 6.52174 8.21595H3.78404C3.78404 9.9915 5.24996 11.3941 6.99189 11.3941V8.65637ZM6.52174 8.21595C6.52174 7.9891 6.70849 7.77441 6.99189 7.77441V5.0367C5.22656 5.0367 3.78404 6.44721 3.78404 8.21595H6.52174ZM6.99189 7.77441C7.29555 7.77441 7.46517 8.00331 7.46221 8.19475L10.1996 8.23714C10.2273 6.44647 8.75232 5.0367 6.99189 5.0367V7.77441ZM7.46204 8.21595C7.46204 8.44113 7.27585 8.65637 6.99189 8.65637V11.3941C8.75667 11.3941 10.1997 9.98411 10.1997 8.21595H7.46204ZM13.7903 8.65637C13.5149 8.65637 13.3202 8.43313 13.3202 8.21595H10.5825C10.5825 9.99211 12.0503 11.3941 13.7903 11.3941V8.65637ZM13.3202 8.21595C13.3202 7.9891 13.5069 7.77441 13.7903 7.77441V5.0367C12.025 5.0367 10.5825 6.44721 10.5825 8.21595H13.3202ZM13.7903 7.77441C14.0956 7.77441 14.2638 8.00451 14.2607 8.19299L16.998 8.23891C17.0281 6.44527 15.5491 5.0367 13.7903 5.0367V7.77441ZM14.2605 8.21595C14.2605 8.44485 14.0782 8.65637 13.7903 8.65637V11.3941C15.5665 11.3941 16.9982 9.98039 16.9982 8.21595H14.2605Z" fill="#1865F2" mask="url(#path-1-inside-1_11_145)"/>
</svg>
