<svg width="287" height="27" viewBox="0 0 287 27" fill="none" xmlns="http://www.w3.org/2000/svg">
<path d="M44.062 21.22C42.698 21.22 41.554 21.022 40.63 20.626C39.7207 20.2153 39.024 19.6873 38.54 19.042C38.0707 18.382 37.8213 17.6927 37.792 16.974C37.792 16.842 37.836 16.732 37.924 16.644C38.012 16.556 38.122 16.512 38.254 16.512H40.212C40.4027 16.512 40.542 16.556 40.63 16.644C40.7327 16.7173 40.8207 16.8127 40.894 16.93C40.982 17.2087 41.1507 17.4873 41.4 17.766C41.6493 18.03 41.9867 18.25 42.412 18.426C42.852 18.602 43.402 18.69 44.062 18.69C45.118 18.69 45.9027 18.514 46.416 18.162C46.944 17.81 47.208 17.3333 47.208 16.732C47.208 16.3067 47.0687 15.9693 46.79 15.72C46.5113 15.456 46.0787 15.2213 45.492 15.016C44.92 14.796 44.1573 14.5687 43.204 14.334C42.104 14.07 41.18 13.7547 40.432 13.388C39.6987 13.0067 39.1413 12.53 38.76 11.958C38.3933 11.386 38.21 10.66 38.21 9.78C38.21 8.92933 38.4373 8.174 38.892 7.514C39.3613 6.854 40.0213 6.33333 40.872 5.952C41.7373 5.57067 42.764 5.38 43.952 5.38C44.9053 5.38 45.7487 5.512 46.482 5.776C47.2153 6.02533 47.824 6.36267 48.308 6.788C48.792 7.19867 49.1587 7.646 49.408 8.13C49.672 8.59933 49.8113 9.06133 49.826 9.516C49.826 9.63333 49.782 9.74333 49.694 9.846C49.6207 9.934 49.5107 9.978 49.364 9.978H47.318C47.2007 9.978 47.0833 9.94867 46.966 9.89C46.8487 9.83133 46.7533 9.72133 46.68 9.56C46.592 9.10533 46.306 8.71667 45.822 8.394C45.338 8.07133 44.7147 7.91 43.952 7.91C43.16 7.91 42.522 8.05667 42.038 8.35C41.554 8.64333 41.312 9.098 41.312 9.714C41.312 10.1247 41.4293 10.4693 41.664 10.748C41.9133 11.012 42.302 11.2467 42.83 11.452C43.3727 11.6573 44.084 11.8773 44.964 12.112C46.2107 12.3907 47.23 12.7133 48.022 13.08C48.814 13.4467 49.3933 13.916 49.76 14.488C50.1267 15.0453 50.31 15.7567 50.31 16.622C50.31 17.59 50.046 18.4187 49.518 19.108C49.0047 19.7827 48.2787 20.3033 47.34 20.67C46.4013 21.0367 45.3087 21.22 44.062 21.22ZM57.4952 21.22C55.8672 21.22 54.5766 20.7507 53.6232 19.812C52.6699 18.8733 52.1566 17.5387 52.0832 15.808C52.0686 15.6613 52.0612 15.478 52.0612 15.258C52.0612 15.0233 52.0686 14.84 52.0832 14.708C52.1419 13.608 52.3912 12.6547 52.8312 11.848C53.2859 11.0413 53.9092 10.4253 54.7012 10C55.4932 9.56 56.4246 9.34 57.4952 9.34C58.6832 9.34 59.6806 9.58933 60.4872 10.088C61.2939 10.572 61.9026 11.254 62.3132 12.134C62.7239 12.9993 62.9292 14.004 62.9292 15.148V15.61C62.9292 15.7567 62.8779 15.8813 62.7752 15.984C62.6726 16.0867 62.5406 16.138 62.3792 16.138H55.0752C55.0752 16.138 55.0752 16.16 55.0752 16.204C55.0752 16.248 55.0752 16.2847 55.0752 16.314C55.0899 16.8273 55.1852 17.304 55.3612 17.744C55.5519 18.1693 55.8232 18.514 56.1752 18.778C56.5419 19.042 56.9746 19.174 57.4732 19.174C57.8839 19.174 58.2286 19.1153 58.5072 18.998C58.7859 18.866 59.0132 18.7193 59.1892 18.558C59.3652 18.3967 59.4899 18.2647 59.5632 18.162C59.6952 17.986 59.7979 17.8833 59.8712 17.854C59.9592 17.81 60.0839 17.788 60.2452 17.788H62.1372C62.2839 17.788 62.4012 17.832 62.4892 17.92C62.5919 18.008 62.6359 18.118 62.6212 18.25C62.6066 18.4847 62.4819 18.7707 62.2472 19.108C62.0272 19.4453 61.7046 19.7753 61.2792 20.098C60.8539 20.4207 60.3186 20.692 59.6732 20.912C59.0426 21.1173 58.3166 21.22 57.4952 21.22ZM55.0752 14.29H59.9372V14.224C59.9372 13.652 59.8419 13.1533 59.6512 12.728C59.4606 12.3027 59.1819 11.9653 58.8152 11.716C58.4486 11.4667 58.0086 11.342 57.4952 11.342C56.9819 11.342 56.5419 11.4667 56.1752 11.716C55.8086 11.9653 55.5299 12.3027 55.3392 12.728C55.1632 13.1533 55.0752 13.652 55.0752 14.224V14.29ZM70.2145 21.22C69.1585 21.22 68.2272 21.022 67.4205 20.626C66.6285 20.23 66.0052 19.658 65.5505 18.91C65.1105 18.1473 64.8685 17.2307 64.8245 16.16C64.8098 15.94 64.8025 15.654 64.8025 15.302C64.8025 14.9353 64.8098 14.6347 64.8245 14.4C64.8685 13.3293 65.1105 12.42 65.5505 11.672C66.0052 10.9093 66.6285 10.33 67.4205 9.934C68.2272 9.538 69.1585 9.34 70.2145 9.34C71.1532 9.34 71.9525 9.472 72.6125 9.736C73.2725 10 73.8152 10.33 74.2405 10.726C74.6658 11.122 74.9812 11.54 75.1865 11.98C75.4065 12.4053 75.5238 12.794 75.5385 13.146C75.5532 13.3073 75.5018 13.4393 75.3845 13.542C75.2818 13.63 75.1572 13.674 75.0105 13.674H73.0745C72.9278 13.674 72.8105 13.6373 72.7225 13.564C72.6492 13.4907 72.5758 13.3807 72.5025 13.234C72.2825 12.6473 71.9892 12.2367 71.6225 12.002C71.2705 11.7527 70.8158 11.628 70.2585 11.628C69.5252 11.628 68.9385 11.8627 68.4985 12.332C68.0732 12.7867 67.8458 13.5127 67.8165 14.51C67.7872 15.0673 67.7872 15.5807 67.8165 16.05C67.8458 17.062 68.0732 17.7953 68.4985 18.25C68.9385 18.7047 69.5252 18.932 70.2585 18.932C70.8305 18.932 71.2925 18.8147 71.6445 18.58C71.9965 18.3307 72.2825 17.9127 72.5025 17.326C72.5758 17.1793 72.6492 17.0693 72.7225 16.996C72.8105 16.9227 72.9278 16.886 73.0745 16.886H75.0105C75.1572 16.886 75.2818 16.9373 75.3845 17.04C75.5018 17.128 75.5532 17.2527 75.5385 17.414C75.5238 17.678 75.4505 17.9787 75.3185 18.316C75.2012 18.6387 75.0032 18.976 74.7245 19.328C74.4605 19.6653 74.1232 19.9807 73.7125 20.274C73.3018 20.5527 72.8032 20.78 72.2165 20.956C71.6445 21.132 70.9772 21.22 70.2145 21.22ZM82.0789 21.22C81.1842 21.22 80.4069 21.022 79.7469 20.626C79.1015 20.2153 78.6029 19.6433 78.2509 18.91C77.8989 18.162 77.7229 17.282 77.7229 16.27V10.088C77.7229 9.94133 77.7742 9.81667 77.8769 9.714C77.9795 9.61133 78.1042 9.56 78.2509 9.56H80.1869C80.3482 9.56 80.4729 9.61133 80.5609 9.714C80.6635 9.81667 80.7149 9.94133 80.7149 10.088V16.138C80.7149 17.9567 81.5142 18.866 83.1129 18.866C83.8755 18.866 84.4769 18.624 84.9169 18.14C85.3715 17.656 85.5989 16.9887 85.5989 16.138V10.088C85.5989 9.94133 85.6502 9.81667 85.7529 9.714C85.8555 9.61133 85.9802 9.56 86.1269 9.56H88.0629C88.2095 9.56 88.3342 9.61133 88.4369 9.714C88.5395 9.81667 88.5909 9.94133 88.5909 10.088V20.472C88.5909 20.6187 88.5395 20.7433 88.4369 20.846C88.3342 20.9487 88.2095 21 88.0629 21H86.2809C86.1195 21 85.9875 20.9487 85.8849 20.846C85.7969 20.7433 85.7529 20.6187 85.7529 20.472V19.57C85.3569 20.0833 84.8655 20.4867 84.2789 20.78C83.6922 21.0733 82.9589 21.22 82.0789 21.22ZM92.0249 21C91.8783 21 91.7536 20.9487 91.6509 20.846C91.5483 20.7433 91.4969 20.6187 91.4969 20.472V10.11C91.4969 9.94867 91.5483 9.81667 91.6509 9.714C91.7536 9.61133 91.8783 9.56 92.0249 9.56H93.8069C93.9536 9.56 94.0783 9.61133 94.1809 9.714C94.2983 9.81667 94.3569 9.94867 94.3569 10.11V11.012C94.6943 10.5427 95.1269 10.1833 95.6549 9.934C96.1976 9.68467 96.8209 9.56 97.5249 9.56H98.4269C98.5883 9.56 98.7129 9.61133 98.8009 9.714C98.9036 9.81667 98.9549 9.94133 98.9549 10.088V11.672C98.9549 11.8187 98.9036 11.9433 98.8009 12.046C98.7129 12.1487 98.5883 12.2 98.4269 12.2H96.7109C96.0069 12.2 95.4569 12.398 95.0609 12.794C94.6796 13.19 94.4889 13.7327 94.4889 14.422V20.472C94.4889 20.6187 94.4376 20.7433 94.3349 20.846C94.2323 20.9487 94.1003 21 93.9389 21H92.0249ZM105.448 21.22C103.82 21.22 102.53 20.7507 101.576 19.812C100.623 18.8733 100.11 17.5387 100.036 15.808C100.022 15.6613 100.014 15.478 100.014 15.258C100.014 15.0233 100.022 14.84 100.036 14.708C100.095 13.608 100.344 12.6547 100.784 11.848C101.239 11.0413 101.862 10.4253 102.654 10C103.446 9.56 104.378 9.34 105.448 9.34C106.636 9.34 107.634 9.58933 108.44 10.088C109.247 10.572 109.856 11.254 110.266 12.134C110.677 12.9993 110.882 14.004 110.882 15.148V15.61C110.882 15.7567 110.831 15.8813 110.728 15.984C110.626 16.0867 110.494 16.138 110.332 16.138H103.028C103.028 16.138 103.028 16.16 103.028 16.204C103.028 16.248 103.028 16.2847 103.028 16.314C103.043 16.8273 103.138 17.304 103.314 17.744C103.505 18.1693 103.776 18.514 104.128 18.778C104.495 19.042 104.928 19.174 105.426 19.174C105.837 19.174 106.182 19.1153 106.46 18.998C106.739 18.866 106.966 18.7193 107.142 18.558C107.318 18.3967 107.443 18.2647 107.516 18.162C107.648 17.986 107.751 17.8833 107.824 17.854C107.912 17.81 108.037 17.788 108.198 17.788H110.09C110.237 17.788 110.354 17.832 110.442 17.92C110.545 18.008 110.589 18.118 110.574 18.25C110.56 18.4847 110.435 18.7707 110.2 19.108C109.98 19.4453 109.658 19.7753 109.232 20.098C108.807 20.4207 108.272 20.692 107.626 20.912C106.996 21.1173 106.27 21.22 105.448 21.22ZM103.028 14.29H107.89V14.224C107.89 13.652 107.795 13.1533 107.604 12.728C107.414 12.3027 107.135 11.9653 106.768 11.716C106.402 11.4667 105.962 11.342 105.448 11.342C104.935 11.342 104.495 11.4667 104.128 11.716C103.762 11.9653 103.483 12.3027 103.292 12.728C103.116 13.1533 103.028 13.652 103.028 14.224V14.29ZM119.037 21C118.89 21 118.766 20.9487 118.663 20.846C118.56 20.7433 118.509 20.6187 118.509 20.472V6.15C118.509 5.98867 118.56 5.85667 118.663 5.754C118.766 5.65133 118.89 5.6 119.037 5.6H124.735C126.51 5.6 127.91 6.01067 128.937 6.832C129.964 7.65333 130.477 8.84867 130.477 10.418C130.477 11.5033 130.206 12.4053 129.663 13.124C129.135 13.8427 128.424 14.3633 127.529 14.686L130.741 20.296C130.785 20.384 130.807 20.4647 130.807 20.538C130.807 20.67 130.756 20.78 130.653 20.868C130.565 20.956 130.462 21 130.345 21H128.343C128.094 21 127.903 20.934 127.771 20.802C127.639 20.67 127.536 20.538 127.463 20.406L124.625 15.192H121.567V20.472C121.567 20.6187 121.516 20.7433 121.413 20.846C121.325 20.9487 121.2 21 121.039 21H119.037ZM121.567 12.706H124.669C125.564 12.706 126.231 12.508 126.671 12.112C127.111 11.7013 127.331 11.1293 127.331 10.396C127.331 9.66267 127.111 9.09067 126.671 8.68C126.246 8.25467 125.578 8.042 124.669 8.042H121.567V12.706ZM133.576 21C133.429 21 133.304 20.9487 133.202 20.846C133.099 20.7433 133.048 20.6187 133.048 20.472V10.088C133.048 9.94133 133.099 9.81667 133.202 9.714C133.304 9.61133 133.429 9.56 133.576 9.56H135.402C135.563 9.56 135.688 9.61133 135.776 9.714C135.878 9.81667 135.93 9.94133 135.93 10.088V20.472C135.93 20.6187 135.878 20.7433 135.776 20.846C135.688 20.9487 135.563 21 135.402 21H133.576ZM133.488 7.668C133.326 7.668 133.194 7.624 133.092 7.536C133.004 7.43333 132.96 7.30133 132.96 7.14V5.556C132.96 5.40933 133.004 5.28467 133.092 5.182C133.194 5.07933 133.326 5.028 133.488 5.028H135.49C135.651 5.028 135.783 5.07933 135.886 5.182C135.988 5.28467 136.04 5.40933 136.04 5.556V7.14C136.04 7.30133 135.988 7.43333 135.886 7.536C135.783 7.624 135.651 7.668 135.49 7.668H133.488ZM143.094 21.22C142.332 21.22 141.657 21.0953 141.07 20.846C140.498 20.582 140.022 20.2153 139.64 19.746C139.259 19.2767 138.966 18.7267 138.76 18.096C138.555 17.4507 138.438 16.7467 138.408 15.984C138.394 15.72 138.386 15.4853 138.386 15.28C138.386 15.06 138.394 14.818 138.408 14.554C138.438 13.8207 138.548 13.1387 138.738 12.508C138.944 11.8773 139.237 11.3273 139.618 10.858C140.014 10.374 140.498 10 141.07 9.736C141.657 9.472 142.332 9.34 143.094 9.34C143.886 9.34 144.554 9.47933 145.096 9.758C145.654 10.022 146.116 10.3667 146.482 10.792V5.908C146.482 5.76133 146.526 5.63667 146.614 5.534C146.717 5.43133 146.849 5.38 147.01 5.38H148.88C149.027 5.38 149.152 5.43133 149.254 5.534C149.357 5.63667 149.408 5.76133 149.408 5.908V20.472C149.408 20.6187 149.357 20.7433 149.254 20.846C149.152 20.9487 149.027 21 148.88 21H147.142C146.981 21 146.849 20.9487 146.746 20.846C146.658 20.7433 146.614 20.6187 146.614 20.472V19.658C146.248 20.1127 145.778 20.4867 145.206 20.78C144.649 21.0733 143.945 21.22 143.094 21.22ZM143.908 18.866C144.524 18.866 145.016 18.7267 145.382 18.448C145.749 18.1693 146.02 17.8173 146.196 17.392C146.372 16.952 146.468 16.5047 146.482 16.05C146.497 15.786 146.504 15.5073 146.504 15.214C146.504 14.906 146.497 14.62 146.482 14.356C146.468 13.916 146.365 13.498 146.174 13.102C145.984 12.6913 145.705 12.354 145.338 12.09C144.972 11.826 144.495 11.694 143.908 11.694C143.292 11.694 142.801 11.8333 142.434 12.112C142.082 12.376 141.826 12.728 141.664 13.168C141.503 13.608 141.408 14.092 141.378 14.62C141.364 15.06 141.364 15.5 141.378 15.94C141.408 16.468 141.503 16.952 141.664 17.392C141.826 17.832 142.082 18.1913 142.434 18.47C142.801 18.734 143.292 18.866 143.908 18.866ZM157.269 21.22C155.641 21.22 154.35 20.7507 153.397 19.812C152.443 18.8733 151.93 17.5387 151.857 15.808C151.842 15.6613 151.835 15.478 151.835 15.258C151.835 15.0233 151.842 14.84 151.857 14.708C151.915 13.608 152.165 12.6547 152.605 11.848C153.059 11.0413 153.683 10.4253 154.475 10C155.267 9.56 156.198 9.34 157.269 9.34C158.457 9.34 159.454 9.58933 160.261 10.088C161.067 10.572 161.676 11.254 162.087 12.134C162.497 12.9993 162.703 14.004 162.703 15.148V15.61C162.703 15.7567 162.651 15.8813 162.549 15.984C162.446 16.0867 162.314 16.138 162.153 16.138H154.849C154.849 16.138 154.849 16.16 154.849 16.204C154.849 16.248 154.849 16.2847 154.849 16.314C154.863 16.8273 154.959 17.304 155.135 17.744C155.325 18.1693 155.597 18.514 155.949 18.778C156.315 19.042 156.748 19.174 157.247 19.174C157.657 19.174 158.002 19.1153 158.281 18.998C158.559 18.866 158.787 18.7193 158.963 18.558C159.139 18.3967 159.263 18.2647 159.337 18.162C159.469 17.986 159.571 17.8833 159.645 17.854C159.733 17.81 159.857 17.788 160.019 17.788H161.911C162.057 17.788 162.175 17.832 162.263 17.92C162.365 18.008 162.409 18.118 162.395 18.25C162.38 18.4847 162.255 18.7707 162.021 19.108C161.801 19.4453 161.478 19.7753 161.053 20.098C160.627 20.4207 160.092 20.692 159.447 20.912C158.816 21.1173 158.09 21.22 157.269 21.22ZM154.849 14.29H159.711V14.224C159.711 13.652 159.615 13.1533 159.425 12.728C159.234 12.3027 158.955 11.9653 158.589 11.716C158.222 11.4667 157.782 11.342 157.269 11.342C156.755 11.342 156.315 11.4667 155.949 11.716C155.582 11.9653 155.303 12.3027 155.113 12.728C154.937 13.1533 154.849 13.652 154.849 14.224V14.29ZM170.857 21C170.711 21 170.586 20.9487 170.483 20.846C170.381 20.7433 170.329 20.6187 170.329 20.472V6.128C170.329 5.98133 170.381 5.85667 170.483 5.754C170.586 5.65133 170.711 5.6 170.857 5.6H172.903C173.05 5.6 173.175 5.65133 173.277 5.754C173.38 5.85667 173.431 5.98133 173.431 6.128V18.382H180.405C180.567 18.382 180.699 18.4333 180.801 18.536C180.904 18.6387 180.955 18.7707 180.955 18.932V20.472C180.955 20.6187 180.904 20.7433 180.801 20.846C180.699 20.9487 180.567 21 180.405 21H170.857ZM187.715 21.22C186.542 21.22 185.552 21.0147 184.745 20.604C183.953 20.1933 183.344 19.614 182.919 18.866C182.508 18.118 182.274 17.2453 182.215 16.248C182.2 15.984 182.193 15.6613 182.193 15.28C182.193 14.8987 182.2 14.576 182.215 14.312C182.274 13.3 182.516 12.4273 182.941 11.694C183.381 10.946 183.997 10.3667 184.789 9.956C185.596 9.54533 186.571 9.34 187.715 9.34C188.859 9.34 189.827 9.54533 190.619 9.956C191.426 10.3667 192.042 10.946 192.467 11.694C192.907 12.4273 193.156 13.3 193.215 14.312C193.23 14.576 193.237 14.8987 193.237 15.28C193.237 15.6613 193.23 15.984 193.215 16.248C193.156 17.2453 192.914 18.118 192.489 18.866C192.078 19.614 191.47 20.1933 190.663 20.604C189.871 21.0147 188.888 21.22 187.715 21.22ZM187.715 19.042C188.492 19.042 189.094 18.8 189.519 18.316C189.944 17.8173 190.179 17.0913 190.223 16.138C190.238 15.918 190.245 15.632 190.245 15.28C190.245 14.928 190.238 14.642 190.223 14.422C190.179 13.4833 189.944 12.7647 189.519 12.266C189.094 11.7673 188.492 11.518 187.715 11.518C186.938 11.518 186.336 11.7673 185.911 12.266C185.486 12.7647 185.251 13.4833 185.207 14.422C185.192 14.642 185.185 14.928 185.185 15.28C185.185 15.632 185.192 15.918 185.207 16.138C185.251 17.0913 185.486 17.8173 185.911 18.316C186.336 18.8 186.938 19.042 187.715 19.042ZM200.845 25.84C199.774 25.84 198.894 25.7007 198.205 25.422C197.515 25.1433 196.973 24.806 196.577 24.41C196.181 24.014 195.895 23.618 195.719 23.222C195.557 22.8407 195.469 22.54 195.455 22.32C195.44 22.1733 195.484 22.0413 195.587 21.924C195.704 21.8213 195.836 21.77 195.983 21.77H197.897C198.043 21.77 198.161 21.7993 198.249 21.858C198.337 21.9313 198.41 22.056 198.469 22.232C198.557 22.4227 198.674 22.628 198.821 22.848C198.967 23.068 199.187 23.2513 199.481 23.398C199.789 23.5593 200.207 23.64 200.735 23.64C201.292 23.64 201.761 23.5593 202.143 23.398C202.524 23.2367 202.81 22.9653 203.001 22.584C203.206 22.2027 203.309 21.6747 203.309 21V19.504C202.957 19.9293 202.502 20.274 201.945 20.538C201.402 20.802 200.727 20.934 199.921 20.934C199.129 20.934 198.447 20.8093 197.875 20.56C197.303 20.296 196.826 19.9367 196.445 19.482C196.063 19.0127 195.77 18.4627 195.565 17.832C195.374 17.2013 195.264 16.5047 195.235 15.742C195.22 15.346 195.22 14.95 195.235 14.554C195.264 13.8207 195.374 13.1387 195.565 12.508C195.755 11.8773 196.041 11.3273 196.423 10.858C196.819 10.374 197.303 10 197.875 9.736C198.447 9.472 199.129 9.34 199.921 9.34C200.757 9.34 201.461 9.50133 202.033 9.824C202.605 10.132 203.074 10.5207 203.441 10.99V10.11C203.441 9.94867 203.492 9.81667 203.595 9.714C203.697 9.61133 203.822 9.56 203.969 9.56H205.751C205.897 9.56 206.022 9.61133 206.125 9.714C206.227 9.81667 206.279 9.94867 206.279 10.11L206.301 20.714C206.301 21.77 206.103 22.6793 205.707 23.442C205.311 24.2047 204.709 24.7913 203.903 25.202C203.111 25.6273 202.091 25.84 200.845 25.84ZM200.735 18.602C201.336 18.602 201.82 18.47 202.187 18.206C202.553 17.942 202.825 17.5973 203.001 17.172C203.177 16.7467 203.279 16.314 203.309 15.874C203.323 15.6833 203.331 15.4413 203.331 15.148C203.331 14.8547 203.323 14.62 203.309 14.444C203.279 13.9893 203.177 13.5567 203.001 13.146C202.825 12.7207 202.553 12.376 202.187 12.112C201.82 11.8333 201.336 11.694 200.735 11.694C200.133 11.694 199.649 11.8333 199.283 12.112C198.916 12.376 198.652 12.728 198.491 13.168C198.344 13.608 198.256 14.092 198.227 14.62C198.197 14.972 198.197 15.3313 198.227 15.698C198.256 16.2113 198.344 16.6953 198.491 17.15C198.652 17.59 198.916 17.942 199.283 18.206C199.649 18.47 200.133 18.602 200.735 18.602ZM209.759 21C209.613 21 209.488 20.9487 209.385 20.846C209.283 20.7433 209.231 20.6187 209.231 20.472V10.088C209.231 9.94133 209.283 9.81667 209.385 9.714C209.488 9.61133 209.613 9.56 209.759 9.56H211.585C211.747 9.56 211.871 9.61133 211.959 9.714C212.062 9.81667 212.113 9.94133 212.113 10.088V20.472C212.113 20.6187 212.062 20.7433 211.959 20.846C211.871 20.9487 211.747 21 211.585 21H209.759ZM209.671 7.668C209.51 7.668 209.378 7.624 209.275 7.536C209.187 7.43333 209.143 7.30133 209.143 7.14V5.556C209.143 5.40933 209.187 5.28467 209.275 5.182C209.378 5.07933 209.51 5.028 209.671 5.028H211.673C211.835 5.028 211.967 5.07933 212.069 5.182C212.172 5.28467 212.223 5.40933 212.223 5.556V7.14C212.223 7.30133 212.172 7.43333 212.069 7.536C211.967 7.624 211.835 7.668 211.673 7.668H209.671ZM219.624 21.22C218.744 21.22 217.989 21.1173 217.358 20.912C216.742 20.7067 216.236 20.45 215.84 20.142C215.444 19.834 215.151 19.526 214.96 19.218C214.769 18.91 214.667 18.6533 214.652 18.448C214.637 18.2867 214.681 18.162 214.784 18.074C214.901 17.9713 215.026 17.92 215.158 17.92H216.896C216.955 17.92 217.006 17.9273 217.05 17.942C217.094 17.9567 217.153 18.0007 217.226 18.074C217.417 18.2353 217.615 18.404 217.82 18.58C218.04 18.756 218.297 18.91 218.59 19.042C218.883 19.1593 219.25 19.218 219.69 19.218C220.262 19.218 220.739 19.108 221.12 18.888C221.516 18.6533 221.714 18.3233 221.714 17.898C221.714 17.59 221.626 17.3407 221.45 17.15C221.289 16.9593 220.981 16.7907 220.526 16.644C220.071 16.4827 219.426 16.314 218.59 16.138C217.769 15.9473 217.087 15.7053 216.544 15.412C216.001 15.1187 215.598 14.752 215.334 14.312C215.07 13.872 214.938 13.3587 214.938 12.772C214.938 12.2 215.107 11.6573 215.444 11.144C215.796 10.616 216.309 10.1833 216.984 9.846C217.673 9.50867 218.524 9.34 219.536 9.34C220.328 9.34 221.017 9.44267 221.604 9.648C222.191 9.83867 222.675 10.0807 223.056 10.374C223.452 10.6673 223.753 10.968 223.958 11.276C224.163 11.5693 224.273 11.826 224.288 12.046C224.303 12.2073 224.259 12.3393 224.156 12.442C224.053 12.53 223.936 12.574 223.804 12.574H222.176C222.103 12.574 222.037 12.5593 221.978 12.53C221.919 12.5007 221.861 12.464 221.802 12.42C221.641 12.2733 221.465 12.1193 221.274 11.958C221.083 11.7967 220.849 11.6573 220.57 11.54C220.306 11.408 219.954 11.342 219.514 11.342C218.957 11.342 218.531 11.4667 218.238 11.716C217.945 11.9507 217.798 12.2513 217.798 12.618C217.798 12.8673 217.864 13.0873 217.996 13.278C218.143 13.454 218.429 13.6227 218.854 13.784C219.279 13.9453 219.925 14.114 220.79 14.29C221.773 14.466 222.55 14.73 223.122 15.082C223.709 15.4193 224.119 15.8153 224.354 16.27C224.603 16.71 224.728 17.2013 224.728 17.744C224.728 18.404 224.53 18.998 224.134 19.526C223.753 20.054 223.181 20.472 222.418 20.78C221.67 21.0733 220.739 21.22 219.624 21.22ZM232.126 21C231.246 21 230.505 20.846 229.904 20.538C229.303 20.23 228.855 19.7753 228.562 19.174C228.269 18.558 228.122 17.7953 228.122 16.886V11.892H226.384C226.237 11.892 226.113 11.8407 226.01 11.738C225.907 11.6353 225.856 11.5107 225.856 11.364V10.088C225.856 9.94133 225.907 9.81667 226.01 9.714C226.113 9.61133 226.237 9.56 226.384 9.56H228.122V5.908C228.122 5.76133 228.166 5.63667 228.254 5.534C228.357 5.43133 228.489 5.38 228.65 5.38H230.432C230.579 5.38 230.703 5.43133 230.806 5.534C230.909 5.63667 230.96 5.76133 230.96 5.908V9.56H233.71C233.857 9.56 233.981 9.61133 234.084 9.714C234.187 9.81667 234.238 9.94133 234.238 10.088V11.364C234.238 11.5107 234.187 11.6353 234.084 11.738C233.981 11.8407 233.857 11.892 233.71 11.892H230.96V16.666C230.96 17.2673 231.063 17.7367 231.268 18.074C231.488 18.4113 231.862 18.58 232.39 18.58H233.908C234.055 18.58 234.179 18.6313 234.282 18.734C234.385 18.8367 234.436 18.9613 234.436 19.108V20.472C234.436 20.6187 234.385 20.7433 234.282 20.846C234.179 20.9487 234.055 21 233.908 21H232.126ZM236.916 21C236.769 21 236.644 20.9487 236.542 20.846C236.439 20.7433 236.388 20.6187 236.388 20.472V10.088C236.388 9.94133 236.439 9.81667 236.542 9.714C236.644 9.61133 236.769 9.56 236.916 9.56H238.742C238.903 9.56 239.028 9.61133 239.116 9.714C239.218 9.81667 239.27 9.94133 239.27 10.088V20.472C239.27 20.6187 239.218 20.7433 239.116 20.846C239.028 20.9487 238.903 21 238.742 21H236.916ZM236.828 7.668C236.666 7.668 236.534 7.624 236.432 7.536C236.344 7.43333 236.3 7.30133 236.3 7.14V5.556C236.3 5.40933 236.344 5.28467 236.432 5.182C236.534 5.07933 236.666 5.028 236.828 5.028H238.83C238.991 5.028 239.123 5.07933 239.226 5.182C239.328 5.28467 239.38 5.40933 239.38 5.556V7.14C239.38 7.30133 239.328 7.43333 239.226 7.536C239.123 7.624 238.991 7.668 238.83 7.668H236.828ZM247.203 21.22C246.147 21.22 245.215 21.022 244.409 20.626C243.617 20.23 242.993 19.658 242.539 18.91C242.099 18.1473 241.857 17.2307 241.813 16.16C241.798 15.94 241.791 15.654 241.791 15.302C241.791 14.9353 241.798 14.6347 241.813 14.4C241.857 13.3293 242.099 12.42 242.539 11.672C242.993 10.9093 243.617 10.33 244.409 9.934C245.215 9.538 246.147 9.34 247.203 9.34C248.141 9.34 248.941 9.472 249.601 9.736C250.261 10 250.803 10.33 251.229 10.726C251.654 11.122 251.969 11.54 252.175 11.98C252.395 12.4053 252.512 12.794 252.527 13.146C252.541 13.3073 252.49 13.4393 252.373 13.542C252.27 13.63 252.145 13.674 251.999 13.674H250.063C249.916 13.674 249.799 13.6373 249.711 13.564C249.637 13.4907 249.564 13.3807 249.491 13.234C249.271 12.6473 248.977 12.2367 248.611 12.002C248.259 11.7527 247.804 11.628 247.247 11.628C246.513 11.628 245.927 11.8627 245.487 12.332C245.061 12.7867 244.834 13.5127 244.805 14.51C244.775 15.0673 244.775 15.5807 244.805 16.05C244.834 17.062 245.061 17.7953 245.487 18.25C245.927 18.7047 246.513 18.932 247.247 18.932C247.819 18.932 248.281 18.8147 248.633 18.58C248.985 18.3307 249.271 17.9127 249.491 17.326C249.564 17.1793 249.637 17.0693 249.711 16.996C249.799 16.9227 249.916 16.886 250.063 16.886H251.999C252.145 16.886 252.27 16.9373 252.373 17.04C252.49 17.128 252.541 17.2527 252.527 17.414C252.512 17.678 252.439 17.9787 252.307 18.316C252.189 18.6387 251.991 18.976 251.713 19.328C251.449 19.6653 251.111 19.9807 250.701 20.274C250.29 20.5527 249.791 20.78 249.205 20.956C248.633 21.132 247.965 21.22 247.203 21.22ZM259.155 21.22C258.275 21.22 257.52 21.1173 256.889 20.912C256.273 20.7067 255.767 20.45 255.371 20.142C254.975 19.834 254.682 19.526 254.491 19.218C254.3 18.91 254.198 18.6533 254.183 18.448C254.168 18.2867 254.212 18.162 254.315 18.074C254.432 17.9713 254.557 17.92 254.689 17.92H256.427C256.486 17.92 256.537 17.9273 256.581 17.942C256.625 17.9567 256.684 18.0007 256.757 18.074C256.948 18.2353 257.146 18.404 257.351 18.58C257.571 18.756 257.828 18.91 258.121 19.042C258.414 19.1593 258.781 19.218 259.221 19.218C259.793 19.218 260.27 19.108 260.651 18.888C261.047 18.6533 261.245 18.3233 261.245 17.898C261.245 17.59 261.157 17.3407 260.981 17.15C260.82 16.9593 260.512 16.7907 260.057 16.644C259.602 16.4827 258.957 16.314 258.121 16.138C257.3 15.9473 256.618 15.7053 256.075 15.412C255.532 15.1187 255.129 14.752 254.865 14.312C254.601 13.872 254.469 13.3587 254.469 12.772C254.469 12.2 254.638 11.6573 254.975 11.144C255.327 10.616 255.84 10.1833 256.515 9.846C257.204 9.50867 258.055 9.34 259.067 9.34C259.859 9.34 260.548 9.44267 261.135 9.648C261.722 9.83867 262.206 10.0807 262.587 10.374C262.983 10.6673 263.284 10.968 263.489 11.276C263.694 11.5693 263.804 11.826 263.819 12.046C263.834 12.2073 263.79 12.3393 263.687 12.442C263.584 12.53 263.467 12.574 263.335 12.574H261.707C261.634 12.574 261.568 12.5593 261.509 12.53C261.45 12.5007 261.392 12.464 261.333 12.42C261.172 12.2733 260.996 12.1193 260.805 11.958C260.614 11.7967 260.38 11.6573 260.101 11.54C259.837 11.408 259.485 11.342 259.045 11.342C258.488 11.342 258.062 11.4667 257.769 11.716C257.476 11.9507 257.329 12.2513 257.329 12.618C257.329 12.8673 257.395 13.0873 257.527 13.278C257.674 13.454 257.96 13.6227 258.385 13.784C258.81 13.9453 259.456 14.114 260.321 14.29C261.304 14.466 262.081 14.73 262.653 15.082C263.24 15.4193 263.65 15.8153 263.885 16.27C264.134 16.71 264.259 17.2013 264.259 17.744C264.259 18.404 264.061 18.998 263.665 19.526C263.284 20.054 262.712 20.472 261.949 20.78C261.201 21.0733 260.27 21.22 259.155 21.22Z" fill="white"/>
<rect y="6.89136" width="9.78261" height="9.78261" rx="2" transform="rotate(-30 0 6.89136)" fill="#1865F2"/>
<rect x="4.13037" y="17.0002" width="10" height="10" rx="2" fill="#1865F2"/>
<rect x="18.1304" y="4.00024" width="10" height="10" rx="2" fill="#1865F2"/>
<rect x="18.1304" y="17.0002" width="10" height="10" rx="2" fill="#1865F2"/>
</svg>
