<svg width="80" height="80" viewBox="0 0 80 80" fill="none" xmlns="http://www.w3.org/2000/svg">
<path fill-rule="evenodd" clip-rule="evenodd" d="M29.2659 47.9083C30.3334 46.0526 32.3575 44.7458 34.7714 43.9974C37.7698 46.6018 42.23 46.6018 45.2286 43.9974C47.6425 44.746 49.6666 46.0525 50.7341 47.9127C45.6139 55.5397 34.3861 55.5397 29.2659 47.9083ZM73.9161 21.143L70.9706 24.9477L73.0613 29.2794L68.5347 27.6496L65.0578 30.9804L65.2084 26.1704L60.9653 23.8938L65.5894 22.5518L66.4442 17.8171L69.1503 21.7944L73.9161 21.1433V21.143ZM59.5834 6.80583L58.9323 11.576L62.9097 14.2822L58.175 15.1371L56.8284 19.7566L54.5519 15.518L49.7419 15.6641L53.0725 12.1916L51.447 7.66505L55.7788 9.75552L59.5834 6.80583ZM6.08391 21.143L10.8541 21.7941L13.5602 17.8168L14.415 22.5515L19.0345 23.8935L14.7959 26.1701L14.9422 30.98L11.4697 27.6493L6.9386 29.2791L9.0336 24.9474L6.08376 21.1427L6.08391 21.143ZM20.4209 6.80583L24.2211 9.75567L28.5572 7.66521L26.9272 12.1918L30.2578 15.6643L25.4478 15.5182L23.1713 19.7568L21.8292 15.1372L17.09 14.2824L21.0717 11.5761L20.4206 6.80599L20.4209 6.80583ZM40.0022 1.56177L41.8225 6.01755L46.6192 6.37192L42.9475 9.47677L44.0902 14.154L40.002 11.6161L35.9095 14.154L37.0566 9.47677L33.3805 6.37192L38.1817 6.01755L40.002 1.56177H40.0022ZM40.0022 31.8704C43.3728 31.8704 46.1011 34.6032 46.1011 37.9738C46.1011 41.3444 43.3728 44.0771 40.0022 44.0771C36.6316 44.0771 33.8988 41.3443 33.8988 37.9738C33.8988 34.6033 36.6316 31.8704 40.0022 31.8704ZM36.3348 18.9329C38.5317 17.3915 41.4727 17.3915 43.6694 18.9329C44.8963 19.7966 46.225 20.1508 47.7177 20.018C50.393 19.7833 52.9395 21.2538 54.0734 23.6854C54.7069 25.0496 55.6767 26.0196 57.0366 26.6529C59.4725 27.7868 60.943 30.3291 60.7039 33.0043C60.5755 34.5013 60.9299 35.8257 61.7891 37.0569C63.3305 39.2538 63.3305 42.1947 61.7891 44.3916C60.9299 45.6185 60.5755 46.9472 60.7039 48.4443C60.9431 51.1151 59.4727 53.6618 57.0366 54.7957C55.6767 55.429 54.7069 56.399 54.0734 57.7588C52.9395 60.1949 50.3928 61.6654 47.7177 61.4305C46.225 61.2977 44.8963 61.6519 43.6694 62.5157C41.4725 64.0571 38.5316 64.0571 36.3348 62.5157C35.1036 61.6521 33.7792 61.2977 32.2822 61.4305C29.6069 61.6652 27.0603 60.1947 25.9308 57.7588C25.2973 56.3991 24.323 55.4291 22.9633 54.7957C20.5317 53.6618 19.0613 51.1151 19.2959 48.4443C19.4288 46.9472 19.0745 45.6185 18.2108 44.3916C16.6694 42.1947 16.6694 39.2538 18.2108 37.0569C19.0744 35.8257 19.4288 34.5013 19.2959 33.0043C19.0613 30.3291 20.5317 27.7868 22.9633 26.6529C24.323 26.0196 25.2973 25.0496 25.9308 23.6854C27.0603 21.2538 29.6069 19.7833 32.2822 20.018C33.7792 20.151 35.1036 19.7966 36.3348 18.9329ZM40.0022 25.931C48.1695 25.931 54.7911 32.5569 54.7911 40.7243C54.7911 48.8916 48.1695 55.5132 40.0022 55.5132C31.8349 55.5132 25.2089 48.8916 25.2089 40.7243C25.2089 32.5569 31.8305 25.931 40.0022 25.931ZM23.8758 57.9226L19.3758 74.7179L28.0258 70.1824L33.2522 78.4383L36.8708 64.9294C36.3019 64.6973 35.761 64.4017 35.2586 64.048C34.3948 63.4411 33.4958 63.2021 32.4461 63.2951C28.9869 63.6007 25.6916 61.6961 24.23 58.5515C24.1238 58.3255 24.0088 58.113 23.8758 57.9226ZM56.1244 57.9226L60.6244 74.7179L51.9744 70.1824L46.748 78.4383L43.1294 64.9294C43.6963 64.6991 44.2366 64.4024 44.7459 64.048C45.6097 63.4411 46.5044 63.2021 47.5541 63.2951C51.0133 63.6007 54.3086 61.6961 55.7702 58.5515C55.872 58.3331 55.9904 58.1228 56.1244 57.9226Z" fill="#1865F2"/>
</svg>
