<svg width="80" height="80" viewBox="0 0 80 80" fill="none" xmlns="http://www.w3.org/2000/svg">
<path fill-rule="evenodd" clip-rule="evenodd" d="M62.6822 66.9584L51.3282 66.8619L51.3151 58.2213C51.3151 55.959 51.5249 53.7778 53.2136 52.2643C53.2155 52.2627 53.2174 52.2611 53.2191 52.2594C55.4196 50.2641 59.4115 47.2618 62.5186 43.615C63.3724 42.8887 64.6204 42.8199 65.4212 43.6207L65.4278 43.6271C66.2198 44.4075 66.198 45.465 65.4458 46.4795C63.6938 48.463 61.814 50.1405 59.8631 52.0914C59.6279 52.3268 59.4957 52.646 59.4957 52.9788C59.4957 53.3116 59.6279 53.6307 59.8631 53.8661C60.0985 54.1013 60.4176 54.2335 60.7504 54.2335C61.0831 54.2335 61.4023 54.1013 61.6376 53.8661C63.6394 51.8644 65.5646 50.1419 67.3603 48.103L67.3614 48.1018C67.3712 48.0906 67.3808 48.0793 67.3903 48.0679L68.3166 46.9377L68.32 46.9336C69.7147 45.217 70.4351 43.3469 70.4351 41.1584V41.1534L70.3795 27.5734C70.3594 21.8418 72.7473 20.7899 74.5355 21.8875C75.1544 22.2672 75.6527 22.8666 75.6701 23.5349V23.5383L76.3926 48.5278C76.4391 50.4702 75.7293 52.1601 74.3671 53.5391L63.0504 64.8373C62.9336 64.9539 62.841 65.0923 62.7779 65.2447C62.7147 65.3971 62.6822 65.5605 62.6822 65.7254V66.9584ZM28.6718 66.8619L17.2994 66.9584V65.7254C17.2995 65.5606 17.267 65.3974 17.2039 65.2452C17.1408 65.0929 17.0483 64.9546 16.9318 64.8381L5.63027 53.5364C4.25239 52.1587 3.56094 50.4687 3.60752 48.5273L4.31137 23.5403C4.3327 22.8702 4.8345 22.2691 5.45694 21.8883C6.19419 21.437 7.16705 21.2905 7.95309 21.8917C8.99231 22.6867 9.63137 24.4574 9.62054 27.5734L9.56501 41.1509C9.54462 43.3386 10.2825 45.2098 11.6555 46.9262L11.6728 46.9471L12.6176 48.0773C12.6245 48.0856 12.6315 48.0938 12.6386 48.1018L12.6394 48.1027C14.434 50.1402 16.3581 51.8616 18.3396 53.8619C18.8271 54.354 19.6223 54.3576 20.1144 53.8702C20.6064 53.3829 20.61 52.5876 20.1227 52.0955C18.1885 50.1433 16.3074 48.4644 14.5543 46.4795C13.8022 45.465 13.7802 44.4075 14.5722 43.6271L14.5853 43.6142C15.3725 42.8155 16.6279 42.89 17.4797 43.6136C20.5708 47.2625 24.5645 50.2665 26.7849 52.263L26.7864 52.2643C28.4751 53.7778 28.6849 55.959 28.6849 58.2213L28.6718 66.8619ZM40 5.2379L59.3031 13.5121V29.1207C59.3031 39.9824 51.3978 49.3683 40.7034 51.2326L40 51.3556L39.2966 51.2326C28.6022 49.3683 20.6969 39.9824 20.6969 29.1207V13.5121L40 5.2379ZM35.1931 23.4898H28.7832C28.4504 23.4898 28.1312 23.622 27.8959 23.8574C27.6605 24.0927 27.5283 24.4119 27.5283 24.7447V31.8487C27.5283 32.1816 27.6605 32.5007 27.8959 32.7361C28.1312 32.9714 28.4504 33.1036 28.7832 33.1036H35.1931V39.5135C35.1931 39.8463 35.3253 40.1655 35.5606 40.4009C35.796 40.6362 36.1152 40.7684 36.448 40.7684H43.552C43.8848 40.7684 44.204 40.6362 44.4394 40.4009C44.6747 40.1655 44.8069 39.8463 44.8069 39.5135V33.1036H51.2168C51.5496 33.1036 51.8688 32.9714 52.1041 32.7361C52.3395 32.5007 52.4717 32.1816 52.4717 31.8487V24.7447C52.4717 24.4119 52.3395 24.0927 52.1041 23.8574C51.8688 23.622 51.5496 23.4898 51.2168 23.4898H44.8069V17.0799C44.8069 16.7471 44.6747 16.4279 44.4394 16.1926C44.204 15.9573 43.8848 15.825 43.552 15.825H36.448C36.1152 15.825 35.796 15.9573 35.5606 16.1926C35.3253 16.4279 35.1931 16.7471 35.1931 17.0799V23.4898ZM36.448 25.9996C36.7808 25.9996 37.1 25.8674 37.3353 25.6321C37.5707 25.3967 37.7029 25.0776 37.7029 24.7447V18.3348H42.2971V24.7447C42.2971 25.0776 42.4293 25.3967 42.6646 25.6321C42.9 25.8674 43.2192 25.9996 43.552 25.9996H49.9619V30.5938H43.552C43.2192 30.5938 42.9 30.726 42.6646 30.9614C42.4293 31.1967 42.2971 31.5159 42.2971 31.8487V38.2586H37.7029V31.8487C37.7029 31.5159 37.5707 31.1967 37.3353 30.9614C37.1 30.726 36.7808 30.5938 36.448 30.5938H30.0381V25.9996H36.448ZM47.3553 69.3382L66.994 69.5049C67.9575 69.5234 68.717 70.3016 68.717 71.2649L68.68 75.0445C68.68 75.9894 67.8833 76.7675 66.9384 76.749L47.2998 76.5822C46.3363 76.5822 45.5766 75.7855 45.5766 74.8407L45.6138 71.0611C45.6138 70.1163 46.4104 69.3382 47.3553 69.3382ZM50.6345 72.5248C50.3382 71.7838 49.5045 71.4316 48.7818 71.7281C48.0408 72.0246 47.6888 72.8398 47.9853 73.5808C48.2631 74.3035 49.0968 74.6555 49.838 74.3775C50.5605 74.0811 50.9125 73.2473 50.6345 72.5248ZM32.6447 69.3382C33.5896 69.3382 34.3678 70.1163 34.3864 71.0611L34.4234 74.8407C34.4234 75.7855 33.6452 76.5822 32.7004 76.5822L13.0616 76.749C12.0982 76.7675 11.3202 75.9894 11.3015 75.0445L11.283 71.2649C11.2645 70.3016 12.0427 69.5234 12.9874 69.5049L32.6447 69.3382ZM32.0149 72.5248C31.7184 71.7838 30.9032 71.4316 30.1622 71.7281C29.4395 72.0246 29.069 72.8398 29.3655 73.5808C29.662 74.3035 30.4772 74.6555 31.2182 74.3775C31.9407 74.0811 32.3112 73.2473 32.0149 72.5248ZM13.9633 7.68418C13.9633 8.37673 13.4009 8.93908 12.7084 8.93908C12.0157 8.93908 11.4535 8.37673 11.4535 7.68418V4.50551C11.4535 3.81281 12.0157 3.25061 12.7084 3.25061C13.4009 3.25061 13.9633 3.81281 13.9633 4.50551V7.68418ZM10.002 9.13563C10.6946 9.13563 11.2569 9.69783 11.2569 10.3905C11.2569 11.0831 10.6946 11.6454 10.002 11.6454H6.82337C6.13066 11.6454 5.56847 11.0831 5.56847 10.3905C5.56847 9.69783 6.13066 9.13563 6.82337 9.13563H10.002ZM11.4535 13.0969C11.4535 12.4043 12.0157 11.842 12.7084 11.842C13.4009 11.842 13.9633 12.4043 13.9633 13.0969V16.2756C13.9633 16.9681 13.4009 17.5305 12.7084 17.5305C12.0157 17.5305 11.4535 16.9681 11.4535 16.2756V13.0969ZM15.4147 11.6454C14.722 11.6454 14.1598 11.0831 14.1598 10.3905C14.1598 9.69783 14.722 9.13563 15.4147 9.13563H18.5934C19.286 9.13563 19.8483 9.69783 19.8483 10.3905C19.8483 11.0831 19.286 11.6454 18.5934 11.6454H15.4147ZM68.8345 7.68418C68.8345 8.37673 68.2722 8.93908 67.5796 8.93908C66.8871 8.93908 66.3247 8.37673 66.3247 7.68418V4.50551C66.3247 3.81281 66.8871 3.25061 67.5796 3.25061C68.2722 3.25061 68.8345 3.81281 68.8345 4.50551V7.68418ZM64.8733 9.13563C65.5658 9.13563 66.1282 9.69783 66.1282 10.3905C66.1282 11.0831 65.5658 11.6454 64.8733 11.6454H61.6946C61.0019 11.6454 60.4397 11.0831 60.4397 10.3905C60.4397 9.69783 61.0019 9.13563 61.6946 9.13563H64.8733ZM66.3247 13.0969C66.3247 12.4043 66.8871 11.842 67.5796 11.842C68.2722 11.842 68.8345 12.4043 68.8345 13.0969V16.2756C68.8345 16.9681 68.2722 17.5305 67.5796 17.5305C66.8871 17.5305 66.3247 16.9681 66.3247 16.2756V13.0969ZM70.286 11.6454C69.5933 11.6454 69.0311 11.0831 69.0311 10.3905C69.0311 9.69783 69.5933 9.13563 70.286 9.13563H73.4646C74.1572 9.13563 74.7195 9.69783 74.7195 10.3905C74.7195 11.0831 74.1572 11.6454 73.4646 11.6454H70.286Z" fill="#1865F2"/>
</svg>
