<svg width="80" height="80" viewBox="0 0 80 80" fill="none" xmlns="http://www.w3.org/2000/svg">
<path fill-rule="evenodd" clip-rule="evenodd" d="M61.3341 14.6537H59.6736C58.8513 14.6537 58.1448 15.1751 57.8684 15.9037H58.0342C60.0547 15.9037 61.8436 16.9294 62.9072 18.4862C63.1392 18.1611 63.2639 17.7716 63.2637 17.3722V16.5833C63.2637 15.522 62.3953 14.6537 61.3341 14.6537ZM64.8009 59.4698L53.1441 61.8653C53.1291 62.3179 53.0125 63.0834 52.812 63.4965C51.8528 65.989 49.087 67.2943 46.5531 66.4495C46.4828 66.4324 46.4143 66.4083 46.3487 66.3776L35.6244 62.5298C35.3569 62.429 35.1397 62.2271 35.0197 61.9677C34.8997 61.7082 34.8865 61.412 34.9829 61.1429C35.0794 60.8738 35.2777 60.6534 35.5352 60.5292C35.7926 60.405 36.0886 60.387 36.3592 60.479L47.1794 64.3612C47.9095 64.6233 48.6834 64.5614 49.3419 64.2508C50.7639 63.5798 51.3622 61.9122 50.6911 60.4901C50.3805 59.8319 49.8227 59.2922 49.0928 59.0304L40.9511 56.1092C40.8296 56.0652 40.7168 56.0002 40.6178 55.917C38.1516 53.8417 36.2739 53.0079 34.5072 52.9072C32.7247 52.8056 30.9148 53.4472 28.6873 54.3165C25.5384 55.5454 22.1752 56.8018 18.8119 58.0581L17.5777 58.5193L21.1205 71.204L28.6175 68.2973C30.1583 67.7 31.7509 67.6936 33.295 68.284L42.2575 71.7115C44.5638 72.5936 47.7912 71.6361 50.3514 70.8764C56.4659 69.0626 62.5948 67.2862 68.7155 65.4922C70.0802 65.0922 71.1431 63.8547 71.5023 62.5443C71.6355 62.0586 71.6644 61.5676 71.5653 61.1173C71.4745 60.7047 71.2713 60.3261 70.9356 60.0229C69.9969 59.175 68.0811 58.7958 64.8009 59.4698ZM14.6436 76.925C14.542 76.9535 14.4358 76.9617 14.331 76.9491C14.2263 76.9365 14.125 76.9033 14.0331 76.8515C13.942 76.8004 13.8619 76.7317 13.7974 76.6495C13.7328 76.5673 13.6852 76.4732 13.6572 76.3725L8.40812 57.5781C8.34828 57.3637 8.37016 57.1594 8.47984 56.9651C8.59234 56.7658 8.74187 56.6506 8.96203 56.5894L13.5836 55.3037C13.6852 55.2752 13.7914 55.267 13.8961 55.2796C14.0009 55.2922 14.1021 55.3254 14.1941 55.3772C14.2852 55.4283 14.3653 55.497 14.4298 55.5792C14.4943 55.6614 14.542 55.7556 14.57 55.8562L19.8191 74.6506C19.8789 74.865 19.857 75.0694 19.7473 75.2636C19.6348 75.4629 19.4853 75.5781 19.2652 75.6394L14.6436 76.925ZM18.1906 32.6365H61.8086C62.61 32.6365 63.2636 33.2901 63.2636 34.0915V35.0951C63.2636 35.8965 62.61 36.5501 61.8086 36.5501H18.1906C17.3892 36.5501 16.7355 35.8965 16.7355 35.0951V34.0915C16.7355 33.2903 17.3892 32.6365 18.1906 32.6365ZM21.8548 18.0912H58.0342C60.0748 18.0912 61.7445 19.7609 61.7445 21.8015V30.449H49.3581V24.3272C49.3581 22.399 47.7845 20.8254 45.8564 20.8254H34.0325C32.1044 20.8254 30.5308 22.3992 30.5308 24.3272V30.449H18.1906C18.1752 30.449 18.1598 30.4494 18.1444 30.4497V21.8015C18.1444 19.7609 19.8141 18.0912 21.8548 18.0912ZM54.9428 20.8197C52.9653 20.8197 51.362 22.4228 51.362 24.4004C51.362 26.3779 52.9652 27.9812 54.9428 27.9812C56.9205 27.9812 58.5236 26.3781 58.5236 24.4004C58.5236 22.4228 56.9205 20.8197 54.9428 20.8197ZM24.9462 20.8197C22.9688 20.8197 21.3655 22.4228 21.3655 24.4004C21.3655 26.3779 22.9686 27.9812 24.9462 27.9812C26.9239 27.9812 28.527 26.3781 28.527 24.4004C28.527 22.4228 26.9239 20.8197 24.9462 20.8197ZM58.3611 38.7378V42.5147C58.3611 43.3161 57.7075 43.9697 56.9059 43.9697H52.9797C52.1783 43.9697 51.5245 43.3161 51.5245 42.5147V38.7378H58.3611ZM28.3645 38.7378V42.4389C28.3645 43.2403 27.7109 43.894 26.9095 43.894H22.9831C22.1817 43.894 21.5281 43.2404 21.5281 42.4389V38.7378H28.3645ZM47.1708 30.449V24.3272C47.1708 23.6064 46.5772 23.0129 45.8564 23.0129H34.0325C33.3119 23.0129 32.7181 23.6065 32.7181 24.3272V30.449H47.1708ZM18.6652 14.6537C17.6039 14.6537 16.7355 15.522 16.7355 16.5834V17.3723C16.7355 17.7517 16.8466 18.1065 17.0377 18.4058C18.1073 16.894 19.8692 15.9037 21.8547 15.9037H22.1308C21.8544 15.1751 21.148 14.6537 20.3255 14.6537H18.6652ZM29.9395 3.04529H49.9495C51.2447 3.04529 52.3467 3.82435 52.7787 5.04529L56.6216 15.9037H23.2677L27.1103 5.04513C27.5423 3.82435 28.6444 3.04529 29.9395 3.04529Z" fill="#1865F2"/>
</svg>
