<svg width="22" height="17" viewBox="0 0 22 17" fill="none" xmlns="http://www.w3.org/2000/svg">
<path d="M2.37429 2.33931C4.52626 4.52948 7.49199 5.92926 10.771 6.09871L11.6564 6.14446L11.4765 5.27634C11.4202 5.00438 11.3874 4.73079 11.3874 4.4651C11.3874 2.56483 12.944 1.00409 14.8958 1.00409L14.8972 1.00409C15.3788 1.00304 15.8552 1.10001 16.2967 1.28873C16.7382 1.47744 17.135 1.75372 17.4627 2.09991L17.7203 2.37196L18.0882 2.30166C18.2815 2.26472 18.4734 2.22152 18.6634 2.1722C18.5878 2.22504 18.5099 2.27508 18.4297 2.32215L18.8487 3.59296C18.9221 3.58513 18.9953 3.57634 19.0682 3.5666C18.9441 3.66795 18.8171 3.76566 18.6874 3.85949L18.3797 4.08199L18.4056 4.46076C18.4161 4.61338 18.4163 4.76983 18.4163 4.95351C18.4163 10.1306 14.4316 16.0615 7.16933 16.0615C5.87917 16.0615 4.64315 15.849 3.49239 15.4572C4.92986 15.1818 6.24964 14.5726 7.36693 13.7079L8.89754 12.5232L6.96246 12.4823C5.79963 12.4578 4.7825 11.8874 4.16042 11.0276C4.47549 11.0061 4.78813 10.9558 5.09435 10.8772L5.05836 9.54313C3.78379 9.28834 2.76768 8.36146 2.39778 7.1564C2.73504 7.2425 3.08168 7.29314 3.43197 7.30677L5.87876 7.40199L3.83595 6.05188C2.88895 5.42599 2.27411 4.36691 2.27411 3.16996L2.2741 3.1677C2.27318 2.88743 2.3071 2.60929 2.37429 2.33931Z" fill="#1865F2" stroke="#1865F2" stroke-width="1.36885"/>
</svg>
